<svg width="80" height="80" viewBox="0 0 80 80" fill="none" xmlns="http://www.w3.org/2000/svg">
<path d="M73.6786 26.7661C71.8429 25.2761 69.1411 25.5384 67.6518 27.3743C66.1507 29.2048 66.4186 31.9049 68.2545 33.4067C70.2679 35.07 71.4286 37.4629 71.4286 39.9987C71.4286 42.5327 70.2679 44.931 68.2482 46.5828C66.4125 48.084 66.1446 50.7848 67.6455 52.6152C68.4882 53.6531 69.7205 54.1888 70.9598 54.1888C71.9141 54.1888 72.8795 53.8708 73.6723 53.2234C77.6964 49.9276 80 45.1239 80 39.9987C80 34.8735 77.6964 30.0698 73.6786 26.7661ZM53.7857 0.504542C51.7321 -0.421739 49.3196 -0.0519052 47.6375 1.44368L23.5357 22.8553H8.57143C3.8375 22.8553 0 26.6929 0 31.2663V48.249C0 52.9831 3.8375 56.66 8.57143 56.66H23.5429L47.6321 78.0714C48.6964 79.5 50.0536 80 51.4286 80C52.2211 80 53.0284 79.8337 53.7786 79.4934C55.8393 78.5714 57.1429 76.5356 57.1429 74.2855V5.71186C57.1429 3.46357 55.8393 1.26528 53.7857 0.504542Z" fill="#363636"/>
</svg>
